<?xml version="1.0" encoding="utf-8"?>
<!-- Generator: Adobe Illustrator 16.0.0, SVG Export Plug-In . SVG Version: 6.00 Build 0)  -->
<!DOCTYPE svg PUBLIC "-//W3C//DTD SVG 1.1//EN" "http://www.w3.org/Graphics/SVG/1.1/DTD/svg11.dtd">
<svg version="1.1" id="Capa_1" xmlns="http://www.w3.org/2000/svg" xmlns:xlink="http://www.w3.org/1999/xlink" x="0px" y="0px"
	 width="809.998px" height="107.667px" viewBox="0 0 809.998 107.667" enable-background="new 0 0 809.998 107.667"
	 xml:space="preserve">
<rect y="11.333" fill-rule="evenodd" clip-rule="evenodd" fill="#040105" width="802.665" height="90.334"/>
<g>
	<path fill-rule="evenodd" clip-rule="evenodd" fill="#FFFFFF" d="M87.853,42.656c-7.294-0.659-14.608-0.737-21.926-0.591
		c-6.693,0.13-13.383,0.403-20.069,0.785c-0.933,0.054-0.974,0.688-1.225,1.254c-0.603,2.006-0.384,4.044-0.22,6.077
		c0.033,0.4,0.167,0.795-0.123,1.28c-0.738-1.357-0.899-2.772-1.021-4.172c-0.113-1.291-0.047-2.597,0.339-3.863
		c0.099-0.322,0.137-0.671-0.057-0.991c-4.17-1.952-8.647-2.748-13.136-3.501c-3.197-0.535-6.411-0.936-9.632-1.291
		c-0.136-0.13-0.134-0.267-0.02-0.409c0.615-0.073,1.232-0.207,1.848-0.205c2.688,0.019,4.964-1.322,7.374-2.21
		c6.249-2.303,12.52-4.49,19.149-5.497c4.522-0.686,8.863-0.083,13.14,1.378c3.204,1.093,6.308,2.421,9.342,3.918
		c0.326,0.159,0.628,0.366,0.94,0.549c0.263,0.178,0.601,0.203,0.837,0.427c0.275,0.135,0.55,0.271,0.824,0.405
		c-0.055,0.518-0.396,0.277-0.654,0.25l0.01,0.004c-0.308-0.258-0.704-0.294-1.061-0.433c-0.154,0.011-0.308,0.013-0.399-0.146
		c-0.474-0.432-1.12-0.436-1.669-0.684c-2.929-1.012-5.859-2.016-8.821-2.943c-7.329-2.293-14.446-1.477-21.479,1.198
		c-1.378,0.525-2.744,1.065-4.137,2.068c1.246,0.089,2.285,0.148,3.322,0.239c2.861,0.25,5.655,0.851,8.404,1.671
		c2.832,0.847,5.777,0.964,8.682,1.254c6.349,0.63,12.707,1.188,19.074,1.603c4.691,0.306,9.336,0.805,13.896,1.969
		c0.131,0.033,0.254,0.092,0.38,0.14c0.457,0.239,0.976,0.272,1.456,0.427l0,0c-0.408,0.614-0.974,0.279-1.488,0.248l0.009,0.002
		C89.142,42.536,88.462,42.914,87.853,42.656z"/>
	<path fill-rule="evenodd" clip-rule="evenodd" fill="#CE6F28" d="M102.807,65.8c-0.59,1.492-1.188,2.983-1.765,4.479
		c-0.194,0.502-0.347,0.932-1.048,0.92c-0.671-0.013-0.77-0.466-0.947-0.905c-0.487-1.218-0.965-2.438-1.456-3.654
		c-0.122-0.3-0.285-0.583-0.651-0.821c0,1.466,0,2.93,0,4.397c0,0.484,0.083,0.96-0.689,0.979c-0.83,0.023-0.75-0.481-0.75-1.012
		c0.004-2.243-0.006-4.487,0.013-6.731c0.003-0.33-0.217-0.866,0.376-0.901c0.535-0.028,1.164-0.271,1.495,0.517
		c0.697,1.654,1.446,3.285,2.189,4.918c0.12,0.268,0.139,0.709,0.493,0.711c0.358,0.002,0.385-0.44,0.505-0.707
		c0.692-1.543,1.413-3.075,2.024-4.648c0.286-0.751,0.749-0.891,1.429-0.814c0.828,0.095,0.467,0.735,0.473,1.13
		c0.038,2.208,0.012,4.418,0.023,6.625c0.004,0.537-0.019,0.934-0.748,0.913c-0.671-0.019-0.693-0.391-0.689-0.88
		c0.01-1.481,0.004-2.962,0.004-4.444C102.994,65.848,102.9,65.823,102.807,65.8z"/>
	<path fill-rule="evenodd" clip-rule="evenodd" fill="#CE6F28" d="M41.492,71.069c-1.245,0.262-2.096,0.139-2.667-0.973
		c-0.407-0.789-1.007-1.481-1.535-2.206c-0.479-0.659-0.58-1.17,0.414-1.409c0.326-0.078,0.649-0.243,0.925-0.438
		c0.49-0.349,0.722-0.851,0.565-1.448c-0.169-0.646-0.708-0.643-1.247-0.649c-2.012-0.024-2.012-0.031-2.012,1.996
		c0,1.483-0.018,2.966,0.009,4.449c0.009,0.563-0.15,0.809-0.758,0.799c-0.58-0.008-0.892-0.118-0.882-0.796
		c0.029-2.346,0.034-4.695-0.002-7.039c-0.012-0.719,0.286-0.869,0.921-0.845c1.035,0.039,2.071,0,3.104,0.015
		c1.328,0.018,2.087,0.466,2.414,1.394c0.385,1.095,0.111,2.18-0.999,2.887c-0.896,0.572-0.74,0.983-0.182,1.648
		C40.223,69.243,40.791,70.11,41.492,71.069z"/>
	<path fill-rule="evenodd" clip-rule="evenodd" fill="#CE6E28" d="M89.106,62.522c0.723,0,1.447,0.017,2.172-0.006
		c0.479-0.015,0.77,0.064,0.77,0.661c0,0.59-0.205,0.794-0.785,0.767c-0.86-0.035-1.729,0.062-2.583-0.025
		c-0.944-0.098-0.949,0.405-0.973,1.105c-0.024,0.779,0.156,1.15,1.023,1.07c0.786-0.075,1.585,0.006,2.377-0.023
		c0.531-0.021,0.73,0.169,0.731,0.712c0.001,0.56-0.235,0.71-0.75,0.694c-0.86-0.029-1.728,0.043-2.583-0.021
		c-0.986-0.077-0.823,0.577-0.809,1.143c0.015,0.541-0.229,1.233,0.781,1.175c0.995-0.059,1.997,0.002,2.996-0.02
		c0.473-0.01,0.696,0.144,0.693,0.646c-0.001,0.479-0.081,0.791-0.669,0.783c-1.55-0.023-3.101-0.019-4.653-0.003
		c-0.482,0.006-0.677-0.174-0.676-0.662c0.015-2.445,0.015-4.896,0-7.342c-0.004-0.49,0.172-0.677,0.663-0.661
		C87.589,62.542,88.347,62.522,89.106,62.522z"/>
	<path fill-rule="evenodd" clip-rule="evenodd" fill="#CF6F28" d="M70.699,71.177c-0.708,0.066-1.42-0.063-2.13-0.204
		c-0.406-0.083-0.561-0.291-0.594-0.704c-0.051-0.635,0.101-0.889,0.79-0.68c0.967,0.29,1.967,0.323,2.966,0.169
		c0.745-0.114,1.198-0.55,1.148-1.33c-0.048-0.781-0.677-0.876-1.278-0.915c-0.582-0.04-1.172,0.004-1.756-0.031
		c-1.161-0.07-1.826-0.609-2.095-1.648c-0.302-1.177,0.056-2.264,1.031-2.782c1.623-0.859,3.341-0.644,5.034-0.26
		c0.55,0.124,0.384,0.675,0.348,1.062c-0.046,0.518-0.445,0.307-0.712,0.245c-1.02-0.237-2.043-0.338-3.071-0.133
		c-0.663,0.132-1.18,0.462-1.117,1.243c0.062,0.789,0.64,0.866,1.271,0.874c0.652,0.007,1.303-0.044,1.954,0.103
		c1.307,0.293,1.862,0.839,1.961,2.027c0.109,1.344-0.429,2.263-1.593,2.711C72.167,71.189,71.448,71.22,70.699,71.177z"/>
	<path fill-rule="evenodd" clip-rule="evenodd" fill="#CF6F28" d="M52.367,62.507c0.514-0.02,1.154,0.087,1.803,0.188
		c0.799,0.121,0.722,0.665,0.625,1.15c-0.126,0.637-0.583,0.219-0.899,0.176c-0.958-0.135-1.918-0.268-2.876-0.051
		c-0.664,0.148-1.146,0.502-1.063,1.282c0.079,0.737,0.616,0.812,1.208,0.827c0.687,0.016,1.371-0.044,2.059,0.115
		c1.22,0.283,1.788,0.836,1.917,1.969c0.139,1.204-0.34,2.197-1.376,2.64c-1.529,0.657-3.108,0.461-4.668,0.113
		c-0.558-0.126-0.459-0.638-0.409-1.032c0.072-0.576,0.505-0.32,0.802-0.261c0.882,0.188,1.767,0.261,2.666,0.171
		c0.814-0.078,1.418-0.403,1.389-1.326c-0.029-0.93-0.771-0.92-1.427-0.962c-0.517-0.03-1.035,0.007-1.551-0.022
		c-1.234-0.066-1.975-0.696-2.177-1.813c-0.224-1.248,0.249-2.24,1.313-2.76C50.33,62.605,50.97,62.503,52.367,62.507z"/>
	<path fill-rule="evenodd" clip-rule="evenodd" fill="#CE6E28" d="M26.702,64.313c-0.875,2.131-1.708,4.121-2.502,6.126
		c-0.205,0.513-0.459,0.771-1.055,0.754c-0.608-0.021-0.823-0.134-0.543-0.774c1.062-2.434,2.109-4.875,3.121-7.329
		c0.247-0.602,0.68-0.556,1.167-0.578c0.507-0.023,0.819,0.114,1.034,0.622c1.01,2.38,2.065,4.742,3.081,7.121
		c0.115,0.268,0.537,0.697,0.055,0.859c-0.43,0.145-1.031,0.274-1.427-0.237c-0.082-0.107-0.152-0.238-0.176-0.371
		c-0.294-1.521-1.25-1.976-2.691-1.731c-0.246,0.041-0.746,0.162-0.706-0.297c0.036-0.391,0.092-0.93,0.701-1.005
		c0.399-0.049,0.98,0.201,1.164-0.147c0.25-0.479-0.239-0.955-0.404-1.43c-0.146-0.424-0.346-0.829-0.527-1.238
		C26.966,64.598,26.908,64.552,26.702,64.313z"/>
	<path fill-rule="evenodd" clip-rule="evenodd" fill="#CE6F28" d="M17.231,71.187c-3.82-0.001-5.769-2.818-4.485-6.316
		c0.367-1,1.058-1.694,2.059-2.034c1.37-0.468,2.761-0.414,4.17-0.145c0.707,0.134,0.677,0.588,0.619,1.072
		c-0.082,0.692-0.525,0.289-0.851,0.25c-0.512-0.06-1.025-0.153-1.539-0.153c-2.307,0-3.345,1.182-3.086,3.471
		c0.167,1.461,0.994,2.279,2.463,2.46c0.761,0.095,1.507,0.024,2.251-0.142c0.266-0.057,0.65-0.331,0.741,0.178
		c0.073,0.422,0.176,0.933-0.422,1.121C18.489,71.156,17.807,71.237,17.231,71.187z"/>
	<path fill-rule="evenodd" clip-rule="evenodd" fill="#CF6F28" d="M65.61,62.646c-0.667,1.184-1.256,2.341-1.948,3.436
		c-0.831,1.309-1.446,2.645-1.194,4.25c0.094,0.581-0.095,0.878-0.773,0.863c-0.604-0.012-0.832-0.235-0.737-0.795
		c0.288-1.722-0.401-3.136-1.323-4.513c-0.685-1.023-1.263-2.115-1.897-3.195c1.44-0.348,1.494-0.324,2.167,0.832
		c0.484,0.833,0.99,1.651,1.449,2.5c0.322,0.601,0.538,0.471,0.804-0.031c0.419-0.789,0.918-1.541,1.276-2.358
		C63.838,62.711,64.412,62.274,65.61,62.646z"/>
	<path fill-rule="evenodd" clip-rule="evenodd" fill="#CE6E28" d="M79.323,67.493c0-0.933-0.029-1.867,0.01-2.796
		c0.024-0.588-0.185-0.822-0.771-0.768c-0.341,0.033-0.692-0.017-1.033,0.01c-0.572,0.045-0.699-0.245-0.699-0.749
		c0-0.481,0.152-0.682,0.655-0.674c1.761,0.019,3.521,0.021,5.281,0c0.557-0.008,0.593,0.301,0.596,0.725
		c0.003,0.453-0.115,0.67-0.635,0.709c-1.858,0.14-1.856,0.161-1.856,2.033c0,1.415-0.015,2.829,0.005,4.244
		c0.009,0.576-0.011,0.978-0.795,0.973c-0.821-0.004-0.765-0.476-0.759-1.014C79.328,69.289,79.323,68.39,79.323,67.493z"/>
	<path fill-rule="evenodd" clip-rule="evenodd" fill="#FDFEFD" d="M38.965,45.977c-3.794-0.531-7.599-0.849-11.429-0.436
		c-1.585,0.169-3.167,0.392-4.826,0.603c3.585-2.875,12.142-3.069,16.73-0.438C39.458,46.105,39.232,46.077,38.965,45.977z"/>
	<path fill-rule="evenodd" clip-rule="evenodd" fill="#FDFEFD" d="M76.901,45.729c3.335-1.824,6.928-2.138,10.614-1.729
		c1.955,0.217,3.856,0.684,5.571,1.717c0.017,0.399-0.217,0.351-0.473,0.262c-3.766-0.519-7.541-0.853-11.341-0.444
		c-1.304,0.138-2.603,0.301-3.903,0.453C77.135,46.045,76.874,46.148,76.901,45.729z"/>
	<path fill-rule="evenodd" clip-rule="evenodd" fill="#CECECD" d="M52.707,78.252c0,1.053,0.006,2.108-0.002,3.161
		c-0.003,0.304,0.04,0.631-0.191,0.885c-0.118,0.132-0.279,0.246-0.448,0.152c-0.096-0.054-0.19-0.213-0.19-0.321
		c-0.008-1.726-0.007-3.447,0.008-5.171c0.003-0.354,0.233-0.557,0.571-0.638c0.342-0.081,0.503,0.134,0.643,0.391
		c0.58,1.057,1.151,2.118,1.747,3.166c0.159,0.278,0.209,0.657,0.731,0.839c0-1.11-0.004-2.158,0.002-3.208
		c0.002-0.272,0.01-0.552,0.066-0.817c0.048-0.22,0.248-0.348,0.468-0.327c0.201,0.019,0.256,0.209,0.256,0.391
		c0.002,1.79,0.009,3.584-0.004,5.377c-0.006,0.443-0.304,0.471-0.657,0.353c-0.436-0.146-0.626-0.512-0.827-0.879
		c-0.626-1.139-1.256-2.276-1.885-3.415C52.897,78.21,52.802,78.23,52.707,78.252z"/>
	<path fill-rule="evenodd" clip-rule="evenodd" fill="#CCCBCA" d="M24.861,76.417c0.984-0.076,2.012,0.205,2.494,1.336
		c0.532,1.25,0.565,2.554-0.247,3.731c-0.588,0.849-2.494,1.27-3.396,0.812c-0.421-0.215-0.564-0.604-0.572-1.027
		c-0.022-1.303-0.029-2.608-0.015-3.913C23.137,76.215,24,76.446,24.861,76.417z"/>
	<path fill-rule="evenodd" clip-rule="evenodd" fill="#CBCBCA" d="M98.813,79.425c-0.001,2.268-1.227,3.458-3.102,3.014
		c-1.429-0.34-2.117-1.909-1.759-4.016c0.24-1.417,1.299-2.234,2.704-2.094C98.097,76.475,98.816,77.506,98.813,79.425z"/>
	<path fill-rule="evenodd" clip-rule="evenodd" fill="#CFCFCE" d="M64.913,79.437c0,2.274-1.211,3.446-3.096,2.998
		c-1.4-0.333-2.008-1.701-1.74-3.921c0.163-1.365,1.074-2.198,2.398-2.198C64.088,76.318,64.913,77.373,64.913,79.437z"/>
	<path fill-rule="evenodd" clip-rule="evenodd" fill="#CDCDCC" d="M40.655,82.114c0.017,0.475-0.236,0.499-0.515,0.31
		c-0.187-0.126-0.401-0.347-0.43-0.545c-0.13-0.954-0.774-0.932-1.507-0.947s-1.275,0.061-1.418,0.929
		c-0.063,0.383-0.364,0.785-0.786,0.613c-0.347-0.141-0.08-0.552,0.006-0.826c0.459-1.479,0.935-2.951,1.4-4.429
		c0.156-0.492,0.415-0.895,0.974-0.937c0.668-0.049,0.614,0.556,0.74,0.937c0.475,1.437,0.908,2.89,1.356,4.335
		C40.539,81.75,40.602,81.947,40.655,82.114z"/>
	<path fill-rule="evenodd" clip-rule="evenodd" fill="#CCCBCA" d="M70.907,81.801c0.746-0.857,0.634-1.471-0.36-1.895
		c-0.377-0.162-0.787-0.244-1.161-0.413c-0.673-0.309-0.958-0.881-0.898-1.593c0.067-0.75,0.449-1.287,1.22-1.485
		c0.647-0.166,1.296-0.104,1.943,0.008c0.202,0.037,0.442,0.079,0.398,0.352c-0.041,0.233-0.267,0.308-0.481,0.295
		c-0.379-0.021-0.753-0.099-1.128-0.099c-0.474,0-0.904,0.129-1.019,0.676c-0.117,0.558,0.141,0.934,0.637,1.152
		c0.281,0.124,0.577,0.221,0.873,0.308c0.893,0.256,1.457,0.782,1.389,1.771c-0.066,0.962-0.598,1.503-1.579,1.564
		c-0.437,0.109-0.875,0.109-1.313,0l0.015-0.008c-0.149-0.194-0.368-0.104-0.557-0.137c-0.276-0.046-0.462-0.145-0.25-0.458
		c0.203-0.009,0.402-0.015,0.604-0.023C69.795,81.937,70.352,81.961,70.907,81.801z"/>
	<path fill-rule="evenodd" clip-rule="evenodd" fill="#C8C7C6" d="M45.607,82.424c-1.047-0.081-1.593-0.723-1.842-1.673
		c-0.205-0.776-0.225-1.562-0.045-2.353c0.392-1.727,2.252-2.676,3.876-1.957c0.11,0.051,0.26,0.157,0.272,0.255
		c0.025,0.192-0.139,0.324-0.319,0.324c-0.376,0.002-0.753-0.041-1.13-0.054c-0.976-0.039-1.627,0.428-1.76,1.378
		c-0.17,1.212-0.43,2.497,0.773,3.42c0.497,0.28,1.035,0.063,1.551,0.124c0.719-0.568,0.428-1.261,0.242-1.939l0.037,0.037
		c-0.264-0.381-0.725,0.002-1.02-0.262v-0.002c0.408-0.59,0.945-0.286,1.45-0.211c0.07,0.072,0.142,0.142,0.214,0.217
		c0.162,0.748,0.162,1.495-0.002,2.243c-0.076,0.076-0.151,0.153-0.227,0.231c-0.35,0.154-0.752,0.111-1.092,0.299
		C46.259,82.487,45.923,82.587,45.607,82.424z"/>
	<path fill-rule="evenodd" clip-rule="evenodd" fill="#C3C2C1" d="M77,79.825c0-0.481-0.04-0.965,0.006-1.441
		c0.092-0.92-0.042-1.588-1.219-1.363c-0.142,0.028-0.378,0.053-0.407-0.183c-0.03-0.246,0.16-0.392,0.374-0.394
		c1.167-0.018,2.334-0.013,3.504-0.013c0.148,0,0.288,0.078,0.267,0.235c-0.024,0.178-0.183,0.343-0.35,0.32
		c-1.543-0.213-1.264,0.858-1.258,1.749c0.01,0.929,0.007,1.857,0,2.785c-0.003,0.426-0.053,0.947-0.563,0.946
		c-0.565-0.005-0.322-0.568-0.344-0.891C76.97,80.997,77,80.41,77,79.825z"/>
	<path fill-rule="evenodd" clip-rule="evenodd" fill="#C9C8C7" d="M90.989,81.999c-0.009,0.253-0.192,0.343-0.389,0.421
		c-0.495,0.142-0.992,0.145-1.486,0c-0.135-0.018-0.28-0.009-0.408-0.052c-1.591-0.541-1.803-2.58-1.294-4.412
		c0.392-1.406,1.924-2.032,3.376-1.551c0.165,0.054,0.37,0.075,0.339,0.295c-0.024,0.178-0.188,0.279-0.371,0.304
		c-0.068,0.009-0.141,0.019-0.205,0.011c-0.995-0.139-1.952-0.079-2.245,1.086c-0.323,1.278-0.511,2.597,0.636,3.648
		C89.588,82.116,90.333,81.696,90.989,81.999z"/>
	<path fill-rule="evenodd" clip-rule="evenodd" fill="#F6F6F6" d="M98.064,43.04c1.756,0.39,3.309,1.144,4.521,2.512
		c0,0.361-0.205,0.312-0.432,0.21c-2.271-0.975-4.538-1.95-6.806-2.925c-0.013-0.398,0.214-0.304,0.438-0.21
		c0.13,0.008,0.259,0.018,0.388,0.027C96.809,42.767,97.451,42.833,98.064,43.04z"/>
	<path fill-rule="evenodd" clip-rule="evenodd" fill="#D5D5D4" d="M83.531,79.347c0,0.791,0.004,1.582-0.001,2.37
		c-0.003,0.379-0.131,0.755-0.549,0.73c-0.462-0.026-0.288-0.475-0.292-0.745c-0.018-1.408-0.016-2.818-0.002-4.227
		c0.004-0.428-0.096-1.064,0.505-1.064c0.619,0,0.299,0.634,0.329,0.979c0.055,0.646,0.016,1.303,0.016,1.956
		C83.535,79.347,83.533,79.347,83.531,79.347z"/>
	<path fill-rule="evenodd" clip-rule="evenodd" fill="#D9D9D8" d="M32.314,79.307c0,0.828,0.011,1.655-0.006,2.481
		c-0.006,0.328-0.143,0.662-0.519,0.652c-0.4-0.011-0.301-0.396-0.304-0.646c-0.008-1.516-0.008-3.032,0.004-4.547
		c0.002-0.382,0.036-0.879,0.529-0.849c0.499,0.031,0.28,0.542,0.293,0.843c0.032,0.686,0.01,1.375,0.01,2.065
		C32.32,79.307,32.316,79.307,32.314,79.307z"/>
	<path fill-rule="evenodd" clip-rule="evenodd" fill="#D8D8D8" d="M43.552,42.435c0.596,0.793,0.014,1.584-0.086,2.338
		c-0.285,2.204,0.053,4.29,0.832,6.343c-0.205-1.76-0.183-3.518-0.123-5.275c0.021-0.614,0.033-1.231,0.458-1.737
		c-0.493,2.53-0.224,5.061-0.013,7.591c0.013,0.155,0.131,0.301,0.201,0.452c0.083,0.102,0.072,0.19-0.037,0.269
		c-0.491,0.104-0.452-0.347-0.55-0.583c-1.128-2.71-1.418-5.507-0.778-8.384C43.533,43.112,43.626,42.784,43.552,42.435z"/>
	<path fill-rule="evenodd" clip-rule="evenodd" fill="#E6E6E5" d="M73.564,36.25c0.222-0.077,0.502,0.008,0.654-0.25
		c0.735-0.068,1.005,0.752,1.645,0.865c-0.02,0.357-0.234,0.286-0.452,0.205C74.721,36.961,74.137,36.616,73.564,36.25z"/>
	<path fill-rule="evenodd" clip-rule="evenodd" fill="#D9D9D9" d="M89.733,42.866c0.477-0.202,1.055,0.213,1.488-0.248
		c0.511-0.132,0.762,0.43,1.211,0.457c0.038,0.196-0.002,0.301-0.231,0.212C91.379,43.149,90.557,43.007,89.733,42.866z"/>
	<path fill-rule="evenodd" clip-rule="evenodd" fill="#AEADAC" d="M20.765,37.234c0.006,0.136,0.013,0.272,0.02,0.409
		c-0.421,0.056-0.827,0.026-1.446-0.256C19.96,37.217,20.351,37.155,20.765,37.234z"/>
	<path fill-rule="evenodd" clip-rule="evenodd" fill="#C5C4C4" d="M75.411,37.07c0.149-0.068,0.301-0.137,0.452-0.205
		c0.359-0.056,0.598,0.173,0.849,0.368c0.037,0.231-0.021,0.359-0.286,0.268C76.058,37.428,75.695,37.341,75.411,37.07z"/>
	<path fill-rule="evenodd" clip-rule="evenodd" fill="#C0C0BF" d="M47.226,79.949c0.42,0.717,0.523,1.409-0.173,2.03
		c-0.058-0.052-0.072-0.097-0.048-0.14c0.025-0.039,0.048-0.058,0.069-0.058C47.459,81.196,47.259,80.564,47.226,79.949z"/>
	<path fill-rule="evenodd" clip-rule="evenodd" fill="#C0C0BF" d="M47.906,81.972c0.002-0.748,0.002-1.495,0.002-2.243
		C48.249,80.477,48.245,81.224,47.906,81.972z"/>
	<path fill-rule="evenodd" clip-rule="evenodd" fill="#E1E1E1" d="M98.064,43.04c-0.662,0.035-1.282-0.143-1.89-0.386
		C96.86,42.511,97.469,42.738,98.064,43.04z"/>
	<path fill-rule="evenodd" clip-rule="evenodd" fill="#E6E6E5" d="M70.445,34.992c0.636,0.031,1.264,0.089,1.669,0.684
		C71.543,35.479,70.952,35.341,70.445,34.992z"/>
	<path fill-rule="evenodd" clip-rule="evenodd" fill="#A6A4A2" d="M90.989,81.999c-0.679-0.125-1.422,0.295-2.048-0.25
		C89.6,82.025,90.359,81.484,90.989,81.999z"/>
	<path fill-rule="evenodd" clip-rule="evenodd" fill="#D9D9D9" d="M87.853,42.656c0.641-0.025,1.296-0.188,1.889,0.213
		C89.105,42.869,88.462,42.922,87.853,42.656z"/>
	<path fill-rule="evenodd" clip-rule="evenodd" fill="#E1E1E1" d="M95.787,42.627c-0.145,0.07-0.292,0.14-0.438,0.21
		c-0.361,0.072-0.622-0.173-0.918-0.335C94.887,42.513,95.367,42.16,95.787,42.627z"/>
	<path fill-rule="evenodd" clip-rule="evenodd" fill="#C0C0BF" d="M47.694,79.512c-0.483,0.078-1.014-0.183-1.45,0.211
		c-0.201-0.12-0.21-0.337-0.007-0.352C46.722,79.338,47.246,79.117,47.694,79.512z"/>
	<path fill-rule="evenodd" clip-rule="evenodd" fill="#B5B3B3" d="M102.154,45.762c0.153-0.052,0.35-0.019,0.432-0.21
		c0.359,0.039,0.448,0.31,0.556,0.648C102.716,46.196,102.414,46.029,102.154,45.762z"/>
	<path fill-rule="evenodd" clip-rule="evenodd" fill="#A8A6A6" d="M76.425,37.502c0.098-0.089,0.191-0.179,0.286-0.268
		c0.334,0.084,0.624,0.229,0.844,0.537C77.037,38.068,76.752,37.707,76.425,37.502z"/>
	<path fill-rule="evenodd" clip-rule="evenodd" fill="#A29F9F" d="M92.201,43.288c0.077-0.07,0.157-0.142,0.231-0.212
		c0.323-0.126,0.567,0.087,0.835,0.196c0.027,0.201-0.016,0.324-0.256,0.236C92.726,43.492,92.431,43.517,92.201,43.288z"/>
	<path fill-rule="evenodd" clip-rule="evenodd" fill="#B5B4B4" d="M76.901,45.729c0.155,0.087,0.313,0.171,0.469,0.258
		c-0.357,0.295-0.763,0.194-1.23,0.14C76.375,45.889,76.591,45.729,76.901,45.729z"/>
	<path fill-rule="evenodd" clip-rule="evenodd" fill="#D9D9D9" d="M91.221,42.618c-0.548,0.072-1.04-0.047-1.456-0.427
		C90.292,42.195,90.78,42.329,91.221,42.618z"/>
	<path fill-rule="evenodd" clip-rule="evenodd" fill="#545453" d="M92.913,42.083c0.469-0.073,0.752-0.128,1.027,0.05
		c-0.053,0.283-0.23,0.301-0.438,0.227C93.35,42.305,93.209,42.224,92.913,42.083z"/>
	<path fill-rule="evenodd" clip-rule="evenodd" fill="#8C8B8B" d="M44.785,52.416c0.013-0.091,0.024-0.18,0.037-0.269
		c0.273,0.349,0.254,0.734,0.093,1.141C44.836,53.002,44.337,52.802,44.785,52.416z"/>
	<path fill-rule="evenodd" clip-rule="evenodd" fill="#9D9A98" d="M47.075,81.782c0.005,0.065-0.002,0.133-0.021,0.197
		c-0.548-0.019-1.131,0.237-1.62-0.215C45.98,81.771,46.529,81.775,47.075,81.782z"/>
	<path fill-rule="evenodd" clip-rule="evenodd" fill="#9F9B9A" d="M70.907,81.801c-0.553,0.358-1.107,0.298-1.664,0.016
		C69.795,81.811,70.351,81.804,70.907,81.801z"/>
	<path fill-rule="evenodd" clip-rule="evenodd" fill="#B6B5B5" d="M92.614,45.979c0.156-0.087,0.315-0.173,0.473-0.262
		c0.249,0.004,0.46,0.068,0.538,0.372C93.26,46.246,92.927,46.223,92.614,45.979z"/>
	<path fill-rule="evenodd" clip-rule="evenodd" fill="#B7B5B5" d="M38.965,45.977c0.159-0.091,0.317-0.18,0.476-0.271
		c0.248,0.012,0.461,0.079,0.542,0.38C39.614,46.25,39.28,46.215,38.965,45.977z"/>
	<path fill-rule="evenodd" clip-rule="evenodd" fill="#ADABAA" d="M68.635,81.84c0.02,0.536,0.663,0.227,0.807,0.595
		C69.147,82.273,68.279,82.889,68.635,81.84z"/>
	<path fill-rule="evenodd" clip-rule="evenodd" fill="#9D9A98" d="M45.607,82.424c0.359-0.021,0.716-0.043,1.073-0.066
		c0.155-0.049,0.304-0.069,0.427,0.071C46.607,82.655,46.107,82.672,45.607,82.424z"/>
	<path fill-rule="evenodd" clip-rule="evenodd" fill="#A6A4A2" d="M89.114,82.42c0.494,0,0.991,0,1.486,0
		C90.105,82.639,89.608,82.657,89.114,82.42z"/>
	<path fill-rule="evenodd" clip-rule="evenodd" fill="#E6E6E5" d="M72.513,35.822c0.436-0.056,0.812,0.033,1.061,0.433
		C73.17,36.231,72.823,36.077,72.513,35.822z"/>
	<path fill-rule="evenodd" clip-rule="evenodd" fill="#9F9B9A" d="M69.427,82.442c0.438-0.095,0.876-0.091,1.313,0
		C70.303,82.655,69.865,82.655,69.427,82.442z"/>
	<path fill-rule="evenodd" clip-rule="evenodd" fill="#565656" d="M93.889,43.472c0.188,0.05,0.487,0.219,0.43,0.293
		c-0.187,0.25-0.439,0.086-0.652-0.054C93.672,43.57,93.815,43.552,93.889,43.472z"/>
	<path fill-rule="evenodd" clip-rule="evenodd" fill="#8A8989" d="M93.889,43.472c-0.074,0.08-0.148,0.161-0.223,0.239
		c-0.219-0.066-0.438-0.136-0.655-0.204c0.087-0.079,0.172-0.157,0.256-0.236C93.477,43.339,93.682,43.406,93.889,43.472z"/>
	<path fill-rule="evenodd" clip-rule="evenodd" fill="#E6E6E5" d="M73.394,35.595c-0.337-0.022-0.636-0.132-0.837-0.427
		C72.915,35.158,73.218,35.25,73.394,35.595z"/>
	<path fill-rule="evenodd" clip-rule="evenodd" fill="#C0C0BF" d="M46.244,79.725c0.35,0.052,0.771-0.183,1.02,0.262
		C46.936,79.85,46.515,80.08,46.244,79.725z"/>
	<path fill-rule="evenodd" clip-rule="evenodd" fill="#C0C0BF" d="M47.107,82.429c-0.142-0.026-0.284-0.048-0.427-0.071
		c0.302-0.253,0.663-0.12,0.999-0.154C47.576,82.498,47.314,82.396,47.107,82.429z"/>
	<path fill-rule="evenodd" clip-rule="evenodd" fill="#101010" d="M26.75,79.482c-0.007,1.581-0.618,2.336-1.845,2.321
		c-0.535-0.003-0.87-0.192-0.875-0.762c-0.009-1.139-0.001-2.273-0.012-3.41c-0.004-0.433,0.176-0.587,0.615-0.619
		C26.073,76.907,26.758,77.686,26.75,79.482z"/>
	<path fill-rule="evenodd" clip-rule="evenodd" fill="#0F0F0F" d="M97.919,79.445c-0.024,0.548-0.033,1.096-0.285,1.606
		c-0.271,0.548-0.698,0.822-1.31,0.815c-0.625-0.003-1.062-0.307-1.266-0.873c-0.372-1.032-0.366-2.09-0.018-3.125
		c0.188-0.56,0.606-0.896,1.239-0.908c0.661-0.013,1.108,0.278,1.38,0.87C97.896,78.349,97.896,78.898,97.919,79.445z"/>
	<path fill-rule="evenodd" clip-rule="evenodd" fill="#0D0D0D" d="M60.927,79.4c-0.001-0.587,0.01-1.17,0.307-1.707
		c0.271-0.495,0.678-0.75,1.255-0.738c0.572,0.01,1.007,0.249,1.233,0.771c0.473,1.095,0.467,2.209,0.031,3.308
		c-0.223,0.565-0.676,0.845-1.294,0.842c-0.625,0-1.027-0.315-1.286-0.86C60.93,80.501,60.926,79.949,60.927,79.4z"/>
	<path fill-rule="evenodd" clip-rule="evenodd" fill="#222120" d="M38.367,77.779c0.171,0.515,0.306,1.047,0.52,1.544
		c0.352,0.816,0.132,1.106-0.759,1.052c-0.573-0.035-0.853-0.117-0.6-0.763c0.234-0.599,0.41-1.22,0.612-1.832
		C38.215,77.78,38.292,77.779,38.367,77.779z"/>
</g>
<g>
	<path fill="#FFFFFF" d="M247.348,59.503c0.615,0.378,1.515,0.694,2.461,0.694c1.404,0,2.225-0.742,2.225-1.814
		c0-0.994-0.567-1.562-2.003-2.114c-1.736-0.615-2.809-1.515-2.809-3.014c0-1.657,1.372-2.887,3.439-2.887
		c1.089,0,1.877,0.252,2.351,0.521l-0.379,1.12c-0.347-0.189-1.057-0.505-2.02-0.505c-1.451,0-2.004,0.868-2.004,1.594
		c0,0.994,0.647,1.483,2.114,2.051c1.799,0.694,2.714,1.562,2.714,3.124c0,1.641-1.215,3.061-3.724,3.061
		c-1.025,0-2.146-0.3-2.713-0.678L247.348,59.503z"/>
	<path fill="#FFFFFF" d="M262.27,57.294c0,2.824-1.957,4.055-3.803,4.055c-2.066,0-3.66-1.515-3.66-3.928
		c0-2.556,1.672-4.055,3.786-4.055C260.787,53.366,262.27,54.959,262.27,57.294z M256.211,57.374c0,1.672,0.962,2.935,2.319,2.935
		c1.325,0,2.319-1.247,2.319-2.966c0-1.294-0.647-2.935-2.288-2.935S256.211,55.922,256.211,57.374z"/>
	<path fill="#FFFFFF" d="M264.017,49.974h1.389v11.202h-1.389V49.974z"/>
	<path fill="#FFFFFF" d="M274.129,59.093c0,0.789,0.016,1.483,0.063,2.083h-1.23l-0.079-1.247h-0.031
		c-0.363,0.616-1.168,1.42-2.524,1.42c-1.199,0-2.635-0.663-2.635-3.345V53.54h1.389v4.228c0,1.452,0.441,2.43,1.704,2.43
		c0.931,0,1.577-0.647,1.83-1.262c0.078-0.205,0.126-0.458,0.126-0.71V53.54h1.389V59.093z"/>
	<path fill="#FFFFFF" d="M281.872,60.892c-0.362,0.189-1.167,0.442-2.192,0.442c-2.304,0-3.803-1.562-3.803-3.897
		c0-2.351,1.609-4.055,4.103-4.055c0.82,0,1.546,0.205,1.925,0.394l-0.315,1.073c-0.332-0.189-0.853-0.363-1.609-0.363
		c-1.752,0-2.698,1.293-2.698,2.887c0,1.767,1.136,2.855,2.65,2.855c0.789,0,1.31-0.205,1.704-0.378L281.872,60.892z"/>
	<path fill="#FFFFFF" d="M285.04,51.394c0.016,0.474-0.332,0.852-0.884,0.852c-0.489,0-0.836-0.378-0.836-0.852
		c0-0.489,0.362-0.868,0.867-0.868C284.708,50.526,285.04,50.905,285.04,51.394z M283.493,61.176V53.54h1.389v7.636H283.493z"/>
	<path fill="#FFFFFF" d="M294.094,57.294c0,2.824-1.957,4.055-3.803,4.055c-2.066,0-3.66-1.515-3.66-3.928
		c0-2.556,1.672-4.055,3.786-4.055C292.611,53.366,294.094,54.959,294.094,57.294z M288.036,57.374c0,1.672,0.962,2.935,2.319,2.935
		c1.325,0,2.319-1.247,2.319-2.966c0-1.294-0.647-2.935-2.288-2.935S288.036,55.922,288.036,57.374z"/>
	<path fill="#FFFFFF" d="M295.841,55.606c0-0.789-0.016-1.436-0.063-2.067h1.23l0.079,1.262h0.031
		c0.379-0.726,1.263-1.436,2.524-1.436c1.058,0,2.698,0.631,2.698,3.25v4.56h-1.389v-4.402c0-1.231-0.457-2.256-1.767-2.256
		c-0.916,0-1.626,0.647-1.862,1.42c-0.063,0.174-0.095,0.41-0.095,0.647v4.591h-1.389V55.606z"/>
	<path fill="#FFFFFF" d="M305.367,57.61c0.031,1.878,1.23,2.651,2.619,2.651c0.994,0,1.594-0.174,2.114-0.395l0.236,0.994
		c-0.489,0.221-1.325,0.473-2.54,0.473c-2.351,0-3.755-1.546-3.755-3.85c0-2.304,1.356-4.118,3.581-4.118
		c2.493,0,3.156,2.193,3.156,3.598c0,0.284-0.032,0.505-0.048,0.646H305.367z M309.437,56.616c0.017-0.884-0.362-2.256-1.925-2.256
		c-1.404,0-2.02,1.294-2.13,2.256H309.437z"/>
	<path fill="#FFFFFF" d="M312.305,59.756c0.41,0.268,1.136,0.552,1.83,0.552c1.01,0,1.482-0.505,1.482-1.136
		c0-0.663-0.395-1.025-1.42-1.404c-1.372-0.489-2.02-1.246-2.02-2.161c0-1.231,0.994-2.241,2.635-2.241
		c0.773,0,1.452,0.221,1.878,0.474l-0.347,1.01c-0.3-0.189-0.853-0.442-1.563-0.442c-0.82,0-1.278,0.473-1.278,1.042
		c0,0.631,0.458,0.915,1.452,1.293c1.325,0.505,2.004,1.167,2.004,2.304c0,1.341-1.042,2.288-2.856,2.288
		c-0.836,0-1.609-0.205-2.146-0.521L312.305,59.756z"/>
	<path fill="#FFFFFF" d="M342.189,50.668c0.662-0.11,1.53-0.205,2.635-0.205c1.356,0,2.351,0.315,2.981,0.883
		c0.584,0.505,0.932,1.278,0.932,2.225c0,0.962-0.284,1.72-0.82,2.272c-0.727,0.773-1.909,1.168-3.251,1.168
		c-0.41,0-0.788-0.016-1.104-0.095v4.26h-1.372V50.668z M343.561,55.795c0.3,0.079,0.679,0.111,1.137,0.111
		c1.656,0,2.666-0.805,2.666-2.272c0-1.404-0.994-2.083-2.509-2.083c-0.6,0-1.057,0.047-1.294,0.111V55.795z"/>
	<path fill="#FFFFFF" d="M350.279,55.922c0-0.899-0.016-1.672-0.063-2.382h1.215l0.047,1.499h0.063
		c0.347-1.025,1.184-1.672,2.114-1.672c0.157,0,0.269,0.016,0.395,0.047v1.31c-0.143-0.031-0.284-0.047-0.474-0.047
		c-0.979,0-1.672,0.742-1.861,1.783c-0.032,0.189-0.063,0.41-0.063,0.646v4.071h-1.373V55.922z"/>
	<path fill="#FFFFFF" d="M362.189,57.294c0,2.824-1.957,4.055-3.803,4.055c-2.066,0-3.66-1.515-3.66-3.928
		c0-2.556,1.673-4.055,3.786-4.055C360.706,53.366,362.189,54.959,362.189,57.294z M356.13,57.374c0,1.672,0.962,2.935,2.319,2.935
		c1.325,0,2.319-1.247,2.319-2.966c0-1.294-0.647-2.935-2.288-2.935S356.13,55.922,356.13,57.374z"/>
	<path fill="#FFFFFF" d="M370.532,49.974v9.23c0,0.678,0.016,1.452,0.063,1.972h-1.246l-0.063-1.325h-0.031
		c-0.426,0.852-1.356,1.499-2.604,1.499c-1.846,0-3.266-1.562-3.266-3.881c-0.016-2.541,1.562-4.103,3.424-4.103
		c1.167,0,1.956,0.552,2.304,1.167h0.031v-4.56H370.532z M369.143,56.647c0-0.173-0.016-0.41-0.063-0.583
		c-0.205-0.884-0.962-1.609-2.003-1.609c-1.437,0-2.288,1.262-2.288,2.95c0,1.546,0.757,2.824,2.256,2.824
		c0.931,0,1.783-0.615,2.035-1.657c0.048-0.189,0.063-0.378,0.063-0.599V56.647z"/>
	<path fill="#FFFFFF" d="M379.221,59.093c0,0.789,0.016,1.483,0.063,2.083h-1.23l-0.079-1.247h-0.031
		c-0.363,0.616-1.168,1.42-2.524,1.42c-1.199,0-2.635-0.663-2.635-3.345V53.54h1.389v4.228c0,1.452,0.441,2.43,1.704,2.43
		c0.931,0,1.577-0.647,1.83-1.262c0.078-0.205,0.126-0.458,0.126-0.71V53.54h1.389V59.093z"/>
	<path fill="#FFFFFF" d="M386.963,60.892c-0.362,0.189-1.167,0.442-2.192,0.442c-2.304,0-3.803-1.562-3.803-3.897
		c0-2.351,1.609-4.055,4.103-4.055c0.82,0,1.546,0.205,1.925,0.394l-0.315,1.073c-0.332-0.189-0.853-0.363-1.609-0.363
		c-1.752,0-2.698,1.293-2.698,2.887c0,1.767,1.136,2.855,2.65,2.855c0.789,0,1.31-0.205,1.704-0.378L386.963,60.892z"/>
	<path fill="#FFFFFF" d="M390.462,51.346v2.193h1.988v1.057h-1.988v4.118c0,0.947,0.269,1.483,1.041,1.483
		c0.363,0,0.632-0.047,0.805-0.095l0.063,1.041c-0.269,0.111-0.694,0.189-1.23,0.189c-0.647,0-1.168-0.205-1.499-0.583
		c-0.395-0.411-0.536-1.089-0.536-1.988v-4.165h-1.184V53.54h1.184v-1.831L390.462,51.346z"/>
	<path fill="#FFFFFF" d="M400.826,57.294c0,2.824-1.957,4.055-3.803,4.055c-2.066,0-3.66-1.515-3.66-3.928
		c0-2.556,1.673-4.055,3.786-4.055C399.342,53.366,400.826,54.959,400.826,57.294z M394.767,57.374c0,1.672,0.962,2.935,2.319,2.935
		c1.325,0,2.319-1.247,2.319-2.966c0-1.294-0.647-2.935-2.288-2.935S394.767,55.922,394.767,57.374z"/>
	<path fill="#FFFFFF" d="M402.384,59.756c0.41,0.268,1.136,0.552,1.83,0.552c1.01,0,1.482-0.505,1.482-1.136
		c0-0.663-0.395-1.025-1.42-1.404c-1.372-0.489-2.02-1.246-2.02-2.161c0-1.231,0.994-2.241,2.635-2.241
		c0.773,0,1.452,0.221,1.878,0.474l-0.347,1.01c-0.3-0.189-0.853-0.442-1.563-0.442c-0.82,0-1.278,0.473-1.278,1.042
		c0,0.631,0.458,0.915,1.452,1.293c1.325,0.505,2.004,1.167,2.004,2.304c0,1.341-1.042,2.288-2.856,2.288
		c-0.836,0-1.609-0.205-2.146-0.521L402.384,59.756z"/>
	<path fill="#FFFFFF" d="M433.639,50.542v10.634h-1.372V50.542H433.639z"/>
	<path fill="#FFFFFF" d="M436.146,55.606c0-0.789-0.016-1.436-0.063-2.067h1.23l0.079,1.262h0.031
		c0.379-0.726,1.263-1.436,2.524-1.436c1.058,0,2.698,0.631,2.698,3.25v4.56h-1.389v-4.402c0-1.231-0.457-2.256-1.767-2.256
		c-0.916,0-1.626,0.647-1.862,1.42c-0.063,0.174-0.095,0.41-0.095,0.647v4.591h-1.389V55.606z"/>
	<path fill="#FFFFFF" d="M451.495,49.974v9.23c0,0.678,0.016,1.452,0.063,1.972h-1.246l-0.063-1.325h-0.031
		c-0.426,0.852-1.356,1.499-2.604,1.499c-1.846,0-3.266-1.562-3.266-3.881c-0.016-2.541,1.562-4.103,3.424-4.103
		c1.167,0,1.956,0.552,2.304,1.167h0.031v-4.56H451.495z M450.106,56.647c0-0.173-0.016-0.41-0.063-0.583
		c-0.205-0.884-0.962-1.609-2.003-1.609c-1.437,0-2.288,1.262-2.288,2.95c0,1.546,0.757,2.824,2.256,2.824
		c0.931,0,1.783-0.615,2.035-1.657c0.048-0.189,0.063-0.378,0.063-0.599V56.647z"/>
	<path fill="#FFFFFF" d="M460.184,59.093c0,0.789,0.016,1.483,0.063,2.083h-1.23l-0.079-1.247h-0.031
		c-0.363,0.616-1.168,1.42-2.524,1.42c-1.199,0-2.635-0.663-2.635-3.345V53.54h1.389v4.228c0,1.452,0.441,2.43,1.704,2.43
		c0.931,0,1.577-0.647,1.83-1.262c0.078-0.205,0.126-0.458,0.126-0.71V53.54h1.389V59.093z"/>
	<path fill="#FFFFFF" d="M462.294,59.756c0.41,0.268,1.136,0.552,1.83,0.552c1.01,0,1.482-0.505,1.482-1.136
		c0-0.663-0.395-1.025-1.42-1.404c-1.372-0.489-2.02-1.246-2.02-2.161c0-1.231,0.994-2.241,2.635-2.241
		c0.773,0,1.452,0.221,1.878,0.474l-0.347,1.01c-0.3-0.189-0.853-0.442-1.563-0.442c-0.82,0-1.278,0.473-1.278,1.042
		c0,0.631,0.458,0.915,1.452,1.293c1.325,0.505,2.004,1.167,2.004,2.304c0,1.341-1.042,2.288-2.856,2.288
		c-0.836,0-1.609-0.205-2.146-0.521L462.294,59.756z"/>
	<path fill="#FFFFFF" d="M470.4,51.346v2.193h1.988v1.057H470.4v4.118c0,0.947,0.269,1.483,1.041,1.483
		c0.363,0,0.632-0.047,0.805-0.095l0.063,1.041c-0.269,0.111-0.694,0.189-1.23,0.189c-0.647,0-1.168-0.205-1.499-0.583
		c-0.395-0.411-0.536-1.089-0.536-1.988v-4.165h-1.184V53.54h1.184v-1.831L470.4,51.346z"/>
	<path fill="#FFFFFF" d="M473.948,55.922c0-0.899-0.016-1.672-0.063-2.382h1.215l0.047,1.499h0.063
		c0.347-1.025,1.184-1.672,2.114-1.672c0.157,0,0.268,0.016,0.395,0.047v1.31c-0.143-0.031-0.284-0.047-0.474-0.047
		c-0.979,0-1.673,0.742-1.861,1.783c-0.032,0.189-0.063,0.41-0.063,0.646v4.071h-1.373V55.922z"/>
	<path fill="#FFFFFF" d="M480.714,51.394c0.016,0.474-0.332,0.852-0.884,0.852c-0.489,0-0.836-0.378-0.836-0.852
		c0-0.489,0.362-0.868,0.867-0.868C480.382,50.526,480.714,50.905,480.714,51.394z M479.167,61.176V53.54h1.389v7.636H479.167z"/>
	<path fill="#FFFFFF" d="M487.085,61.176l-0.11-0.962h-0.047c-0.426,0.6-1.247,1.136-2.335,1.136c-1.547,0-2.336-1.088-2.336-2.193
		c0-1.846,1.642-2.856,4.592-2.84v-0.158c0-0.631-0.174-1.767-1.735-1.767c-0.71,0-1.452,0.221-1.988,0.568l-0.315-0.915
		c0.631-0.41,1.546-0.679,2.509-0.679c2.335,0,2.903,1.594,2.903,3.124v2.856c0,0.663,0.031,1.31,0.126,1.83H487.085z
		 M486.88,57.279c-1.515-0.032-3.234,0.237-3.234,1.72c0,0.899,0.6,1.325,1.31,1.325c0.994,0,1.625-0.631,1.846-1.278
		c0.048-0.142,0.079-0.3,0.079-0.442V57.279z"/>
	<path fill="#FFFFFF" d="M521.339,60.829c-0.505,0.252-1.515,0.505-2.808,0.505c-2.998,0-5.254-1.893-5.254-5.38
		c0-3.329,2.256-5.585,5.554-5.585c1.325,0,2.161,0.284,2.524,0.473l-0.332,1.121c-0.521-0.253-1.262-0.442-2.146-0.442
		c-2.493,0-4.149,1.593-4.149,4.386c0,2.603,1.499,4.275,4.086,4.275c0.837,0,1.688-0.173,2.241-0.441L521.339,60.829z"/>
	<path fill="#FFFFFF" d="M529.745,57.294c0,2.824-1.957,4.055-3.803,4.055c-2.066,0-3.66-1.515-3.66-3.928
		c0-2.556,1.672-4.055,3.786-4.055C528.261,53.366,529.745,54.959,529.745,57.294z M523.686,57.374c0,1.672,0.962,2.935,2.319,2.935
		c1.325,0,2.319-1.247,2.319-2.966c0-1.294-0.647-2.935-2.288-2.935S523.686,55.922,523.686,57.374z"/>
	<path fill="#FFFFFF" d="M531.492,55.606c0-0.789-0.016-1.436-0.063-2.067h1.215l0.063,1.23h0.048
		c0.426-0.726,1.136-1.404,2.398-1.404c1.041,0,1.83,0.631,2.161,1.531h0.031c0.237-0.426,0.537-0.757,0.853-0.994
		c0.457-0.347,0.962-0.537,1.688-0.537c1.01,0,2.508,0.663,2.508,3.313v4.497h-1.356v-4.323c0-1.467-0.536-2.351-1.656-2.351
		c-0.789,0-1.404,0.583-1.642,1.262c-0.063,0.189-0.11,0.442-0.11,0.694v4.717h-1.356V56.6c0-1.215-0.537-2.098-1.594-2.098
		c-0.868,0-1.499,0.694-1.72,1.388c-0.079,0.205-0.11,0.442-0.11,0.679v4.607h-1.357V55.606z"/>
	<path fill="#FFFFFF" d="M544.644,56.032c0-0.978-0.031-1.767-0.063-2.493h1.246l0.063,1.31h0.031
		c0.568-0.931,1.468-1.483,2.714-1.483c1.846,0,3.234,1.562,3.234,3.881c0,2.746-1.673,4.102-3.471,4.102
		c-1.01,0-1.894-0.441-2.352-1.199h-0.031V64.3h-1.373V56.032z M546.017,58.067c0,0.205,0.031,0.395,0.063,0.568
		c0.252,0.962,1.088,1.625,2.082,1.625c1.468,0,2.319-1.199,2.319-2.951c0-1.53-0.805-2.84-2.271-2.84
		c-0.947,0-1.83,0.679-2.099,1.72c-0.048,0.174-0.095,0.379-0.095,0.568V58.067z"/>
	<path fill="#FFFFFF" d="M557.846,61.176l-0.11-0.962h-0.047c-0.427,0.6-1.247,1.136-2.335,1.136c-1.547,0-2.336-1.088-2.336-2.193
		c0-1.846,1.642-2.856,4.592-2.84v-0.158c0-0.631-0.174-1.767-1.735-1.767c-0.71,0-1.452,0.221-1.988,0.568l-0.315-0.915
		c0.631-0.41,1.546-0.679,2.509-0.679c2.335,0,2.903,1.594,2.903,3.124v2.856c0,0.663,0.031,1.31,0.126,1.83H557.846z
		 M557.641,57.279c-1.515-0.032-3.234,0.237-3.234,1.72c0,0.899,0.6,1.325,1.31,1.325c0.994,0,1.625-0.631,1.846-1.278
		c0.048-0.142,0.079-0.3,0.079-0.442V57.279z"/>
	<path fill="#FFFFFF" d="M561.218,55.606c0-0.789-0.016-1.436-0.063-2.067h1.23l0.079,1.262h0.031
		c0.379-0.726,1.263-1.436,2.524-1.436c1.058,0,2.698,0.631,2.698,3.25v4.56h-1.389v-4.402c0-1.231-0.457-2.256-1.767-2.256
		c-0.916,0-1.626,0.647-1.862,1.42c-0.063,0.174-0.095,0.41-0.095,0.647v4.591h-1.389V55.606z M562.512,52.23
		c-0.031-1.026,0.395-1.641,1.073-1.641c0.347,0,0.615,0.142,0.979,0.347c0.252,0.142,0.473,0.268,0.662,0.268
		c0.253,0,0.41-0.142,0.441-0.678h0.742c0.016,1.057-0.348,1.594-1.089,1.594c-0.331,0-0.631-0.142-0.963-0.316
		c-0.315-0.189-0.488-0.284-0.678-0.284c-0.253,0-0.379,0.268-0.41,0.71H562.512z"/>
	<path fill="#FFFFFF" d="M571.518,51.394c0.016,0.474-0.332,0.852-0.884,0.852c-0.489,0-0.836-0.378-0.836-0.852
		c0-0.489,0.362-0.868,0.867-0.868C571.186,50.526,571.518,50.905,571.518,51.394z M569.971,61.176V53.54h1.389v7.636H569.971z"/>
	<path fill="#FFFFFF" d="M577.889,61.176l-0.11-0.962h-0.047c-0.427,0.6-1.247,1.136-2.335,1.136c-1.547,0-2.336-1.088-2.336-2.193
		c0-1.846,1.642-2.856,4.592-2.84v-0.158c0-0.631-0.174-1.767-1.735-1.767c-0.71,0-1.452,0.221-1.988,0.568l-0.315-0.915
		c0.631-0.41,1.546-0.679,2.509-0.679c2.335,0,2.903,1.594,2.903,3.124v2.856c0,0.663,0.031,1.31,0.126,1.83H577.889z
		 M577.684,57.279c-1.515-0.032-3.234,0.237-3.234,1.72c0,0.899,0.6,1.325,1.31,1.325c0.994,0,1.625-0.631,1.846-1.278
		c0.048-0.142,0.079-0.3,0.079-0.442V57.279z"/>
	<path fill="#FFFFFF" d="M604.523,59.503c0.615,0.378,1.515,0.694,2.461,0.694c1.404,0,2.225-0.742,2.225-1.814
		c0-0.994-0.567-1.562-2.003-2.114c-1.736-0.615-2.809-1.515-2.809-3.014c0-1.657,1.372-2.887,3.439-2.887
		c1.089,0,1.877,0.252,2.351,0.521l-0.379,1.12c-0.347-0.189-1.057-0.505-2.02-0.505c-1.451,0-2.003,0.868-2.003,1.594
		c0,0.994,0.646,1.483,2.113,2.051c1.799,0.694,2.714,1.562,2.714,3.124c0,1.641-1.215,3.061-3.724,3.061
		c-1.025,0-2.146-0.3-2.713-0.678L604.523,59.503z"/>
	<path fill="#FFFFFF" d="M619.445,57.294c0,2.824-1.957,4.055-3.803,4.055c-2.066,0-3.66-1.515-3.66-3.928
		c0-2.556,1.673-4.055,3.786-4.055C617.961,53.366,619.445,54.959,619.445,57.294z M613.386,57.374c0,1.672,0.962,2.935,2.319,2.935
		c1.325,0,2.319-1.247,2.319-2.966c0-1.294-0.647-2.935-2.288-2.935S613.386,55.922,613.386,57.374z"/>
	<path fill="#FFFFFF" d="M621.191,56.032c0-0.978-0.031-1.767-0.063-2.493h1.246l0.063,1.31h0.031
		c0.568-0.931,1.468-1.483,2.714-1.483c1.846,0,3.234,1.562,3.234,3.881c0,2.746-1.673,4.102-3.471,4.102
		c-1.01,0-1.894-0.441-2.352-1.199h-0.031V64.3h-1.373V56.032z M622.564,58.067c0,0.205,0.031,0.395,0.063,0.568
		c0.252,0.962,1.088,1.625,2.082,1.625c1.468,0,2.319-1.199,2.319-2.951c0-1.53-0.805-2.84-2.271-2.84
		c-0.947,0-1.83,0.679-2.099,1.72c-0.048,0.174-0.095,0.379-0.095,0.568V58.067z"/>
	<path fill="#FFFFFF" d="M637.076,57.294c0,2.824-1.957,4.055-3.803,4.055c-2.066,0-3.66-1.515-3.66-3.928
		c0-2.556,1.673-4.055,3.786-4.055C635.592,53.366,637.076,54.959,637.076,57.294z M631.017,57.374c0,1.672,0.962,2.935,2.319,2.935
		c1.325,0,2.319-1.247,2.319-2.966c0-1.294-0.647-2.935-2.288-2.935S631.017,55.922,631.017,57.374z"/>
	<path fill="#FFFFFF" d="M638.822,55.922c0-0.899-0.016-1.672-0.063-2.382h1.215l0.047,1.499h0.063
		c0.347-1.025,1.184-1.672,2.114-1.672c0.157,0,0.269,0.016,0.395,0.047v1.31c-0.143-0.031-0.284-0.047-0.474-0.047
		c-0.979,0-1.672,0.742-1.861,1.783c-0.032,0.189-0.063,0.41-0.063,0.646v4.071h-1.373V55.922z"/>
	<path fill="#FFFFFF" d="M646.03,51.346v2.193h1.988v1.057h-1.988v4.118c0,0.947,0.269,1.483,1.041,1.483
		c0.363,0,0.632-0.047,0.805-0.095l0.063,1.041c-0.269,0.111-0.694,0.189-1.23,0.189c-0.647,0-1.168-0.205-1.499-0.583
		c-0.395-0.411-0.536-1.089-0.536-1.988v-4.165h-1.184V53.54h1.184v-1.831L646.03,51.346z"/>
	<path fill="#FFFFFF" d="M650.256,57.61c0.031,1.878,1.23,2.651,2.619,2.651c0.994,0,1.594-0.174,2.114-0.395l0.236,0.994
		c-0.489,0.221-1.325,0.473-2.54,0.473c-2.351,0-3.755-1.546-3.755-3.85c0-2.304,1.356-4.118,3.581-4.118
		c2.493,0,3.156,2.193,3.156,3.598c0,0.284-0.032,0.505-0.048,0.646H650.256z M654.327,56.616c0.017-0.884-0.362-2.256-1.925-2.256
		c-1.404,0-2.02,1.294-2.13,2.256H654.327z"/>
</g>
</svg>
