<?xml version="1.0" encoding="utf-8"?>
<!-- Generator: Adobe Illustrator 16.0.0, SVG Export Plug-In . SVG Version: 6.00 Build 0)  -->
<!DOCTYPE svg PUBLIC "-//W3C//DTD SVG 1.1//EN" "http://www.w3.org/Graphics/SVG/1.1/DTD/svg11.dtd">
<svg version="1.1" id="Capa_1" xmlns="http://www.w3.org/2000/svg" xmlns:xlink="http://www.w3.org/1999/xlink" x="0px" y="0px"
	 width="91.901px" height="90.328px" viewBox="0 0 91.901 90.328" enable-background="new 0 0 91.901 90.328" xml:space="preserve">
<g>
	<circle fill="#52A9C5" cx="45.951" cy="45.874" r="38.165"/>
	<circle fill="none" stroke="#52A9C5" stroke-miterlimit="10" cx="45.95" cy="45.874" r="40.837"/>
	<g>
		<defs>
			<circle id="SVGID_1_" cx="45.951" cy="45.874" r="38.165"/>
		</defs>
		<clipPath id="SVGID_2_">
			<use xlink:href="#SVGID_1_"  overflow="visible"/>
		</clipPath>
		<g clip-path="url(#SVGID_2_)">
			<path fill="#F8F5F7" d="M59.708,61.405l-5.812-2.146c-4.352-1.432-3.415-3.937-3.415-3.937h-4.475h-0.069h-4.475
				c0,0,0.937,2.505-3.416,3.937l-5.812,2.146l13.737,1.656L59.708,61.405z"/>
			<path fill="#FFFFFF" d="M34.853,38.068c0.059,1.707-0.29,3.193-1.172,3.224c-0.881,0.03-1.52-1.333-1.579-3.038
				c-0.06-1.707,0.619-3.114,1.5-3.145C34.483,35.079,34.794,36.361,34.853,38.068z"/>
			<path fill="#FFFFFF" d="M57.344,38.068c-0.058,1.707,0.29,3.193,1.172,3.224c0.883,0.03,1.521-1.333,1.579-3.038
				c0.06-1.707-0.619-3.114-1.499-3.145C57.714,35.079,57.404,36.361,57.344,38.068z"/>
			<ellipse fill="#FFFFFF" cx="45.972" cy="39.435" rx="11.981" ry="17.102"/>
			<path fill="#0A345D" d="M32.816,36.128c-0.206-2.42-0.406-6.109,0.886-9.795c0.819-2.338,1.925-5.153,4.21-6.107
				c2.832-1.187,0.864,0.742,6.771-0.422c2.524-0.498,4.874-1.766,8.959-0.603c0,0,4.017,1.228,5.207,10.348
				c0.001,0.014,0.003,0.026,0.006,0.041c0.045,0.249,0.53,2.962,0.34,6.339c-0.033,0.588-0.605,3.43-1.08,3.78
				c-0.734,0.54-0.743-0.105-0.811-0.136c-0.246-0.111,0.32-3.458,0.282-3.725c-0.211-1.527-1.293-6.358-3.788-7.565
				c-0.013-0.006-1.564-0.526-4.134,0.724c-4.955,2.408-7.281,0.293-7.925,0.109c-0.042-0.012-0.795-0.453-0.834-0.473
				c-0.485-0.234-3.331-1.407-4.748,1.213c-0.015,0.028-0.031,0.055-0.049,0.081c-0.188,0.267-1.452,2.081-1.913,6.212
				c-0.027,0.247,0.548,3.223,0.482,3.522c-0.001,0.004-0.729,0.362-0.844-0.105C33.805,39.445,32.925,37.413,32.816,36.128z"/>
			<path fill="#262626" d="M58.211,35.676c0.004-0.069-0.147-0.348-0.2-0.382c-0.632-0.415-1.012-0.845-1.91-0.85
				c-0.857-0.004-1.716-0.032-2.57-0.006c-2.104,0.065-4.209,0.158-6.313,0.229c-0.417,0.016-0.848,0.034-1.258,0.041
				c-0.409-0.006-0.828-0.024-1.246-0.041c-2.104-0.071-4.203-0.164-6.309-0.229c-0.855-0.026-1.708,0.002-2.565,0.006
				c-0.899,0.004-1.277,0.435-1.911,0.85c-0.053,0.034-0.203,0.313-0.198,0.382c0.054,0.75-0.306,1.488,0.536,2.048
				c0.247,0.297,0.247,0.888,0.33,1.268c0.288,1.327,1.271,2.042,2.686,2.243c1.678,0.332,4.208,0.227,4.724,0.129
				c0.642-0.071,1.21-0.465,1.53-0.906c0.44-0.604,0.823-1.244,1.2-1.88c0.212-0.36,0.357-0.747,0.532-1.123
				c0.131-0.279,0.334-0.4,0.691-0.4c0.358,0,0.572,0.122,0.705,0.4c0.174,0.376,0.33,0.763,0.543,1.123
				c0.377,0.637,0.761,1.276,1.2,1.88c0.32,0.441,0.888,0.835,1.529,0.906c0.517,0.097,3.046,0.202,4.726-0.129
				c1.414-0.2,2.395-0.916,2.684-2.243c0.083-0.38,0.083-0.971,0.33-1.268C58.518,37.164,58.158,36.426,58.211,35.676z
				 M44.469,37.275c-0.155,0.942-0.596,1.788-1.208,2.56c-0.426,0.536-1.031,0.841-1.779,0.969
				c-1.389,0.236-2.764,0.121-4.135-0.051c-0.891-0.113-1.487-0.59-1.742-1.357c-0.374-1.128-0.452-2.273-0.245-3.438
				c0.083-0.465,0.341-0.782,0.871-0.831c0.968-0.089,2.304-0.129,2.892-0.146c0.548,0,1.134-0.008,1.675,0.046
				c0.827,0.087,1.672,0.166,2.46,0.388C44.217,35.686,44.615,36.397,44.469,37.275z M56.339,39.396
				c-0.255,0.767-0.853,1.244-1.743,1.357c-1.371,0.172-2.748,0.287-4.134,0.051c-0.749-0.127-1.353-0.433-1.78-0.969
				c-0.612-0.772-1.053-1.618-1.208-2.56c-0.145-0.878,0.254-1.59,1.212-1.859c0.789-0.222,1.634-0.301,2.461-0.388
				c0.541-0.055,1.126-0.046,1.674-0.046c0.585,0.016,1.924,0.057,2.892,0.146c0.53,0.049,0.788,0.366,0.871,0.831
				C56.791,37.124,56.712,38.268,56.339,39.396z"/>
			<path fill="#0A345D" d="M57.267,39.445c0.037,0.474-0.512,2.935-1.125,4.306c-0.153,0.34-0.292,0.653-0.424,0.942
				c-0.835,1.836-3.058,2.98-4.825,2.01c-0.878-0.481-1.392-1.023-3.744-1.333l-1.181,0.016l-1.181-0.016
				c-2.351,0.31-2.864,0.852-3.743,1.333c-1.769,0.971-3.991-0.174-4.825-2.01c-0.132-0.289-0.272-0.603-0.422-0.942
				c-0.614-1.371-1.164-3.832-1.126-4.306h-0.866c0.106,1.594,0.302,3.213,0.64,4.666c0,0,1.687,11.796,11.037,12.429
				c0,0,0.166,0.02,0.457,0.022l0,0c0.008,0,0.013,0,0.021,0l0,0c0.003,0,0.006,0,0.009,0c0.004,0,0.007,0,0.01,0l0,0
				c0.007,0,0.013,0,0.021,0l0,0c0.29-0.002,0.456-0.022,0.456-0.022c9.351-0.633,11.036-12.429,11.036-12.429
				c0.34-1.452,0.535-3.072,0.643-4.666H57.267z"/>
			<path fill="#F0EFEF" d="M38.128,58.727c0.009-0.002,0.019-0.002,0.029-0.002L40.7,71.847l0.018,0.094l2.056,10.614l0.937,4.834
				h4.464l0.812-4.196l2.173-11.213L53.7,58.838c-0.641-0.253-1.299-0.449-1.99-0.556c0,0,0.526,3.41-5.048,3.551
				c-6.263,0.162-6.335-3.551-6.335-3.551c-0.771,0.079-1.51,0.237-2.229,0.445c0.009-0.002,0.02-0.002,0.03-0.002V58.727z"/>
			<path fill="#262626" d="M42.773,82.555L40.7,71.847l-2.571-13.12c-0.012,0-0.025,0-0.038,0c-0.052,0.004-0.106,0.006-0.161,0.01
				c-5.203,0.333-11.605,2.075-14.905,5.531c-5.79,6.067-4.742,23.612-4.385,23.121h14.762h7.193h1.852h1.262L42.773,82.555z"/>
			<path fill="#262626" d="M48.345,82.555l2.076-10.708l2.57-13.12c0.012,0,0.024,0,0.038,0c0.053,0.004,0.106,0.006,0.161,0.01
				c5.202,0.333,11.605,2.075,14.904,5.531c5.791,6.067,4.742,23.612,4.386,23.121H57.717h-7.193H48.67H47.41L48.345,82.555z"/>
			<polygon fill="#262626" points="45.471,62.13 44.437,87.398 47.362,87.398 46.46,62.13 			"/>
			<path fill="#262626" d="M47.566,61.348l-1.601,1.648l-1.601-1.648l1.601-1.65L47.566,61.348z"/>
			<polygon fill="#FFFFFF" points="45.966,59.694 50.727,57.287 53.182,58.717 48.085,62.792 			"/>
			<polygon fill="#FFFFFF" points="45.966,59.694 41.203,57.287 38.748,58.717 43.76,62.792 			"/>
		</g>
	</g>
</g>
</svg>
